HIERARCHY
ROOT Hips
{
	OFFSET 0.00 0.00 0.00
	CHANNELS 6 Xposition Yposition Zposition Xrotation Yrotation Zrotation
	JOINT LeftUpLeg
	{
		OFFSET 3.10215 0.00000 0.00000
		CHANNELS 3 Xrotation Yrotation Zrotation
		JOINT LeftLeg
		{
			OFFSET 0.00000 -16.83331 0.00000
			CHANNELS 3 Xrotation Yrotation Zrotation
			JOINT LeftFoot
			{
				OFFSET 0.00000 -15.53879 0.00000
				CHANNELS 3 Xrotation Yrotation Zrotation
				JOINT LeftToeBase
				{
					OFFSET 0.00000 -1.57366 5.87297
					CHANNELS 3 Xrotation Yrotation Zrotation
					End Site
					{
						OFFSET 0.00000 0.00000 2.95275
					}
				}
			}
		}
	}
	JOINT RightUpLeg
	{
		OFFSET -3.10215 0.00000 0.00000
		CHANNELS 3 Xrotation Yrotation Zrotation
		JOINT RightLeg
		{
			OFFSET 0.00000 -16.83331 0.00000
			CHANNELS 3 Xrotation Yrotation Zrotation
			JOINT RightFoot
			{
				OFFSET 0.00000 -15.53879 0.00000
				CHANNELS 3 Xrotation Yrotation Zrotation
				JOINT RightToeBase
				{
					OFFSET 0.00000 -1.57366 5.87297
					CHANNELS 3 Xrotation Yrotation Zrotation
					End Site
					{
						OFFSET 0.00000 0.00000 2.95275
					}
				}
			}
		}
	}
	JOINT Spine
	{
		OFFSET 0.00000 0.03937 0.00000
		CHANNELS 3 Xrotation Yrotation Zrotation
		JOINT Spine1
		{
			OFFSET 0.00000 8.31046 0.00000
			CHANNELS 3 Xrotation Yrotation Zrotation
			JOINT Neck
			{
				OFFSET 0.00000 6.25463 0.00000
				CHANNELS 3 Xrotation Yrotation Zrotation
				JOINT Head
				{
					OFFSET 0.00000 8.60817 0.00000
					CHANNELS 3 Xrotation Yrotation Zrotation
					End Site
					{
						OFFSET 0.00000 4.52755 0.00000
					}
				}
			}
			JOINT LeftShoulder
			{
				OFFSET 0.00000 6.25463 0.00000
				CHANNELS 3 Xrotation Yrotation Zrotation
				JOINT LeftArm
				{
					OFFSET 7.44857 -0.00003 0.00000
					CHANNELS 3 Xrotation Yrotation Zrotation
					JOINT LeftForeArm
					{
						OFFSET 10.73545 -0.00004 0.00000
						CHANNELS 3 Xrotation Yrotation Zrotation
						JOINT LeftHand
						{
							OFFSET 10.15840 -0.00004 0.00000
							CHANNELS 3 Xrotation Yrotation Zrotation
							JOINT LeftHandThumb
							{
								OFFSET 0.00000 0.00000 0.00000
								CHANNELS 3 Xrotation Yrotation Zrotation
								End Site
								{
									OFFSET 0.00000 0.00000 3.93700
								}
							}
							JOINT L_Wrist_End
							{
								OFFSET 3.93700 -0.00001 0.00000
								CHANNELS 3 Xrotation Yrotation Zrotation
							}
						}
					}
				}
			}
			JOINT RightShoulder
			{
				OFFSET 0.00000 6.25463 0.00000
				CHANNELS 3 Xrotation Yrotation Zrotation
				JOINT RightArm
				{
					OFFSET -7.44857 -0.00003 0.00000
					CHANNELS 3 Xrotation Yrotation Zrotation
					JOINT RightForeArm
					{
						OFFSET -10.73545 -0.00004 0.00000
						CHANNELS 3 Xrotation Yrotation Zrotation
						JOINT RightHand
						{
							OFFSET -10.15840 -0.00004 0.00000
							CHANNELS 3 Xrotation Yrotation Zrotation
							JOINT RightHandThumb
							{
								OFFSET 0.00000 0.00000 0.00000
								CHANNELS 3 Xrotation Yrotation Zrotation
								End Site
								{
									OFFSET 0.00000 0.00000 3.93700
								}
							}
							JOINT R_Wrist_End
							{
								OFFSET -5.39369 -0.00002 0.00000
								CHANNELS 3 Xrotation Yrotation Zrotation
							}
						}
					}
				}
			}
		}
	}
}
MOTION
Frames: 17
Frame Time: 0.008333
 111.2531 33.3763 4.1463 176.3496 -13.2111 178.9586 2.2616 -27.8482 -9.1181 8.8899 0.0000 0.0000 -13.1790 -0.3956 -10.4623 -4.2309 0.0000 -0.0000 -10.2467 13.6423 -18.6010 14.0895 -0.0000 -0.0000 -18.6326 -8.6496 -2.4369 2.3898 -0.0000 0.0000 -4.8941 1.5209 -1.2590 1.7239 0.0091 -1.5020 18.2692 16.9400 2.4427 -4.6717 -6.8394 -9.3054 17.7715 -5.5332 23.8573 -22.0264 -26.1340 -95.7911 -0.0003 -50.1104 -0.0001 -10.7501 3.0640 -9.4243 0.0000 0.0000 -0.0000 0.0000 0.0000 -0.0000 19.9528 -5.4659 -16.4563 3.6160 2.1064 100.5340 -0.0000 2.7784 0.0000 -29.7889 13.0900 26.4007 -0.0000 0.0000 -0.0000 -0.0000 0.0000 -0.0000
 111.3687 33.3615 3.9230 176.2223 -14.7404 179.0412 2.2999 -28.4460 -8.8891 9.5222 -0.0000 0.0000 -13.5833 -1.1225 -10.7495 -4.4160 0.0000 -0.0000 -9.4654 13.9745 -19.0408 11.2996 0.0000 -0.0000 -18.5727 -8.4226 -1.9195 2.2598 -0.0000 -0.0000 -4.8928 1.5411 -1.2810 1.7124 0.0346 -1.5827 18.3079 17.1091 2.4215 -4.9341 -6.5866 -9.4096 17.7543 -5.6621 23.9638 -22.0516 -25.8613 -95.8089 -0.0002 -49.8338 -0.0001 -10.6429 2.9246 -8.8466 -0.0000 0.0000 -0.0000 -0.0000 0.0000 -0.0000 19.9469 -5.4137 -16.4791 3.6127 2.4065 100.3968 -0.0000 2.9536 0.0000 -29.4214 12.7819 26.6283 0.0000 0.0000 -0.0000 0.0000 0.0000 -0.0000
 111.4865 33.3454 3.6832 176.1264 -16.2000 179.0612 2.3879 -29.0399 -8.6064 10.2436 -0.0000 0.0000 -14.1243 -1.8033 -10.8655 -4.5480 0.0000 -0.0000 -8.9534 13.9552 -19.3128 9.0642 -0.0000 0.0000 -18.6198 -7.9491 -0.8800 2.1705 -0.0000 0.0000 -4.9230 1.5911 -1.2909 1.6861 0.0874 -1.6210 18.4971 17.1862 2.5398 -5.4321 -6.2147 -9.8166 17.9030 -5.7305 24.0741 -22.1613 -25.5287 -95.8350 -0.0002 -49.4914 -0.0001 -10.6525 2.6888 -8.3330 0.0000 -0.0000 0.0000 0.0000 -0.0000 0.0000 20.0723 -5.3646 -16.4457 3.5090 2.5547 100.1367 -0.0000 3.0493 0.0000 -29.0058 12.3745 27.0652 -0.0000 -0.0000 -0.0000 -0.0000 -0.0000 -0.0000
 111.6157 33.3307 3.4416 176.0066 -17.6405 178.9057 2.4988 -29.6485 -8.1097 11.0741 -0.0000 0.0000 -14.8122 -2.4191 -11.3564 -3.5724 0.0000 -0.0000 -8.7089 13.7773 -19.2856 7.3654 -0.0000 -0.0000 -18.5257 -7.4132 1.0855 2.3085 -0.0000 0.0000 -4.9795 1.5645 -1.2231 1.6924 0.0705 -1.5682 18.6165 17.3957 2.5267 -5.7572 -5.8343 -10.0021 17.8531 -5.7949 24.0858 -21.9736 -25.0489 -95.8173 -0.0002 -49.1505 -0.0001 -10.5815 2.6021 -7.8480 -0.0000 0.0000 0.0000 -0.0000 0.0000 0.0000 20.1183 -5.2164 -16.3992 3.3990 2.7927 99.7800 -0.0000 3.2092 0.0000 -28.7004 12.3705 27.1126 -0.0000 0.0000 0.0000 -0.0000 0.0000 0.0000
 111.7469 33.3140 3.1894 175.9020 -19.0275 178.6946 2.6134 -30.2175 -7.5767 12.0187 -0.0000 0.0000 -15.4864 -2.9413 -11.8309 -3.0267 0.0000 -0.0000 -8.7735 13.0183 -19.0614 6.0617 0.0000 0.0000 -18.3070 -6.3862 3.5728 2.6092 -0.0000 0.0000 -5.0773 1.5251 -1.1454 1.7469 0.0413 -1.4815 18.7473 17.6159 2.5325 -6.0819 -5.3681 -10.2318 17.7948 -5.8322 24.0495 -21.6565 -24.4498 -95.7502 -0.0002 -48.8183 -0.0001 -10.6364 2.4077 -7.5148 -0.0000 0.0000 -0.0000 -0.0000 0.0000 -0.0000 20.1229 -5.0019 -16.3236 3.3047 3.1945 99.3068 -0.0000 3.4323 0.0000 -28.6585 12.3639 27.1349 -0.0000 0.0000 0.0000 -0.0000 0.0000 0.0000
 111.8510 33.2818 2.9493 175.8947 -19.5377 178.7276 2.5955 -30.3633 -7.5125 13.0299 0.0000 0.0000 -16.2037 -3.0314 -11.6585 -2.9905 0.0000 0.0000 -9.0105 13.1041 -18.8798 5.3773 -0.0000 -0.0000 -18.2901 -5.0703 5.8451 2.7476 -0.0000 -0.0000 -5.0363 1.9090 -1.0522 1.7239 0.4219 -1.4591 18.7462 17.9311 2.3958 -6.1140 -5.0984 -10.3914 17.7934 -5.5113 23.9008 -21.6630 -24.0602 -95.7711 -0.0002 -48.4922 -0.0001 -12.4419 3.2583 -7.8537 -0.0000 -0.0000 -0.0000 -0.0000 -0.0000 -0.0000 20.0965 -4.7203 -16.5180 3.2291 3.2599 98.9611 -0.0000 3.3908 0.0000 -27.9216 13.2348 26.7327 -0.0000 -0.0000 -0.0000 -0.0000 -0.0000 -0.0000
 112.0364 33.2729 2.6461 175.8447 -21.4816 177.9440 3.0670 -31.2071 -6.1291 14.2615 -0.0000 0.0000 -16.9582 -3.8720 -12.3081 -3.7076 0.0000 0.0000 -9.7252 9.8422 -17.7833 4.7928 -0.0000 -0.0000 -17.7857 -2.2262 8.6017 2.0872 -0.0000 0.0000 -5.2063 1.6317 -0.9493 1.9167 0.1735 -1.0212 18.7674 17.8312 2.7425 -6.3291 -4.3860 -10.6955 17.8136 -5.8202 24.0933 -21.2793 -23.2981 -95.7850 -0.0002 -48.0099 -0.0001 -12.3371 2.2023 -6.4286 -0.0000 0.0000 -0.0000 -0.0000 0.0000 -0.0000 19.9270 -4.8287 -16.0083 3.2046 4.3793 98.0310 -0.0000 3.9978 0.0000 -29.0847 12.3653 26.9101 -0.0000 -0.0000 -0.0000 -0.0000 -0.0000 -0.0000
 112.1525 33.2426 2.3836 175.8229 -22.5879 177.9028 2.9486 -31.8111 -5.9495 15.5698 -0.0000 0.0000 -17.6184 -4.0247 -12.6400 -3.3208 0.0000 -0.0000 -10.4205 7.8613 -17.5205 4.7814 0.0000 -0.0000 -17.3860 0.4843 11.8092 2.3047 -0.0000 0.0000 -5.2442 1.6936 -0.9860 1.9539 0.2418 -0.9815 18.8198 18.0782 2.7477 -6.4535 -3.9271 -10.7844 17.8808 -5.6922 24.1133 -21.1064 -22.6488 -95.8100 -0.0002 -47.5253 -0.0001 -13.0696 1.9829 -5.8776 -0.0000 0.0000 -0.0000 -0.0000 0.0000 -0.0000 19.8154 -4.6550 -15.9186 3.1514 4.5176 97.3574 -0.0000 4.1348 0.0000 -28.9814 12.5902 26.6248 0.0000 0.0000 -0.0000 0.0000 0.0000 -0.0000
 112.2652 33.2119 2.1208 175.8015 -23.6249 177.8233 2.7774 -32.4185 -5.7834 16.9796 0.0000 -0.0000 -18.1661 -4.1169 -12.8032 -3.8896 -0.0000 0.0000 -11.1077 6.0025 -17.2167 5.0914 -0.0000 0.0000 -16.8642 3.3815 14.5417 2.1520 -0.0000 -0.0000 -5.1689 1.6879 -1.0104 1.8339 0.2466 -0.8979 18.8119 18.3939 2.7008 -6.3948 -3.4161 -10.8758 17.8404 -5.4576 24.0148 -20.6667 -21.9988 -95.8000 -0.0002 -47.0696 -0.0001 -13.8420 1.5463 -5.2898 -0.0000 0.0000 -0.0000 -0.0000 0.0000 -0.0000 19.7101 -4.4382 -15.8605 3.0469 4.7384 96.5756 -0.0000 4.2243 0.0000 -28.9033 12.9121 26.3005 -0.0000 -0.0000 -0.0000 -0.0000 -0.0000 -0.0000
 112.3843 33.1811 1.8525 175.7954 -24.5702 177.7297 2.6005 -32.7637 -5.5804 18.5058 0.0000 -0.0000 -18.6476 -4.2920 -13.1136 -4.4987 -0.0000 -0.0000 -11.7865 4.3797 -16.8580 5.8778 -0.0000 0.0000 -16.4654 6.1870 16.4016 2.0503 -0.0000 -0.0000 -5.2954 1.7849 -1.0562 1.8957 0.3526 -0.8039 18.9484 18.5933 2.7452 -6.3627 -2.9251 -10.9637 17.9679 -5.4506 23.9888 -20.2232 -20.9572 -95.7432 -0.0002 -46.6867 -0.0001 -14.4936 1.4615 -5.0058 -0.0000 0.0000 -0.0000 -0.0000 0.0000 -0.0000 19.7379 -4.1612 -15.7982 2.7964 4.6962 95.8478 -0.0000 4.1827 0.0000 -28.8892 13.3115 25.8104 -0.0000 0.0000 0.0000 -0.0000 0.0000 0.0000
 112.4864 33.1439 1.5912 175.7981 -25.4761 177.7341 2.3029 -33.0981 -5.5570 20.1168 0.0000 0.0000 -19.0619 -4.5163 -13.3116 -5.2049 0.0000 0.0000 -12.3203 3.1999 -16.6260 7.0392 -0.0000 0.0000 -15.9438 8.5407 17.9122 1.5725 0.0000 0.0000 -5.2241 1.8826 -1.1015 1.7728 0.4577 -0.7941 18.9439 18.8470 2.7193 -6.2425 -2.4916 -10.9419 18.0733 -5.2142 23.9152 -19.9006 -20.3139 -95.6764 -0.0002 -46.2012 -0.0001 -15.4807 1.2178 -4.4449 0.0000 -0.0000 0.0000 0.0000 -0.0000 0.0000 19.5925 -4.0247 -15.7202 2.6941 4.6766 95.0177 -0.0000 4.2003 0.0000 -28.7429 13.6492 25.3380 -0.0000 0.0000 0.0000 -0.0000 0.0000 0.0000
 112.5838 33.1035 1.3202 175.8190 -26.4092 177.8045 1.9739 -33.2230 -5.5716 21.8074 0.0000 -0.0000 -19.4477 -4.8983 -13.7710 -5.8183 0.0000 0.0000 -12.6579 2.3218 -16.4732 8.2859 -0.0000 -0.0000 -15.0270 10.3323 18.8828 1.1833 0.0000 -0.0000 -5.1659 1.9449 -1.1895 1.6469 0.5261 -0.8444 18.9224 19.0173 2.7754 -6.0543 -1.9874 -11.0087 18.1471 -4.9938 23.9058 -19.4370 -19.6278 -95.6237 -0.0002 -45.7045 -0.0001 -16.3594 0.9582 -4.0329 -0.0000 0.0000 -0.0000 -0.0000 0.0000 -0.0000 19.4160 -3.9044 -15.6947 2.5620 4.6938 94.2151 -0.0000 4.1090 0.0000 -28.8143 14.0439 24.9891 0.0000 0.0000 -0.0000 0.0000 0.0000 -0.0000
 112.6733 33.0628 1.0473 175.8047 -27.3584 177.9557 1.5161 -33.3788 -5.7116 23.5620 -0.0000 0.0000 -19.8032 -5.2330 -14.1785 -4.8914 -0.0000 0.0000 -12.8917 1.8056 -16.4205 9.5798 0.0000 -0.0000 -13.8134 11.2856 18.6150 1.9298 -0.0000 -0.0000 -5.1702 1.9616 -1.3141 1.4969 0.5504 -0.9900 19.1290 19.3431 2.7361 -6.1737 -1.5859 -10.9921 18.2450 -4.8363 23.8754 -18.7941 -18.8072 -95.4762 -0.0002 -45.2609 -0.0001 -17.2269 0.7868 -3.6761 -0.0000 0.0000 -0.0000 -0.0000 0.0000 -0.0000 19.3282 -3.8042 -15.6822 2.1833 4.6468 93.4476 -0.0000 3.7595 0.0000 -28.3785 14.7982 24.2128 -0.0000 -0.0000 -0.0000 -0.0000 -0.0000 -0.0000
 112.7718 33.0278 0.7814 175.8119 -28.2252 178.0482 1.0416 -33.1835 -5.7477 25.4441 0.0000 0.0000 -19.8970 -5.8839 -14.4602 -6.0148 -0.0000 -0.0000 -13.0705 1.6828 -16.2390 10.9343 0.0000 0.0000 -13.7720 11.8940 16.7963 3.8115 -0.0000 0.0000 -5.1009 2.0706 -1.3868 1.3670 0.6636 -1.1271 19.0658 19.4596 2.8244 -5.9924 -1.1041 -11.0203 18.3559 -4.7033 23.7927 -18.2410 -18.1866 -95.1894 -0.0002 -44.7948 -0.0001 -18.3257 0.6181 -3.3703 -0.0000 0.0000 -0.0000 -0.0000 0.0000 -0.0000 19.1430 -3.7081 -15.6204 1.9835 4.4680 92.6661 -0.0000 3.6333 0.0000 -28.2896 15.3267 23.4041 -0.0000 0.0000 0.0000 -0.0000 0.0000 0.0000
 112.8810 32.9986 0.5204 175.7790 -29.1392 178.0566 0.4794 -32.9512 -5.7005 27.4843 -0.0000 0.0000 -19.9673 -6.5340 -15.0269 -5.4411 0.0000 0.0000 -13.1227 2.1502 -15.9783 12.6071 -0.0000 0.0000 -14.9607 10.5643 16.6814 3.3554 -0.0000 0.0000 -4.9967 2.1368 -1.4201 1.1659 0.7352 -1.2516 19.1402 19.7704 2.7247 -6.0418 -0.8472 -10.8687 18.4535 -4.5478 23.6971 -17.7069 -17.5187 -94.8429 -0.0002 -44.1503 -0.0001 -19.4150 0.3734 -3.8606 0.0000 -0.0000 0.0000 0.0000 -0.0000 0.0000 18.9877 -3.5844 -15.5678 1.6489 4.1663 91.9355 -0.0000 3.3490 0.0000 -28.0552 16.0891 22.4548 0.0000 0.0000 -0.0000 0.0000 0.0000 -0.0000
 112.9848 32.9808 0.2717 175.6112 -29.8821 177.9027 -0.2828 -32.4631 -5.6047 29.6874 -0.0000 0.0000 -19.7281 -7.2399 -15.3595 -6.8689 0.0000 0.0000 -13.2563 2.9621 -15.6116 14.2847 -0.0000 -0.0000 -16.1872 8.7709 17.0506 2.5292 -0.0000 -0.0000 -4.9029 2.2248 -1.2365 0.7913 0.8197 -1.5417 19.1452 19.9422 2.7312 -5.7983 -0.4523 -10.8438 18.4119 -4.5685 23.4932 -16.6402 -16.8016 -94.3293 -0.0002 -43.8006 -0.0001 -20.1191 0.6498 -2.6802 -0.0000 -0.0000 -0.0000 -0.0000 -0.0000 -0.0000 18.9059 -3.2053 -15.5407 1.4244 4.0775 91.2338 -0.0000 3.2401 0.0000 -28.2091 16.8943 21.2285 -0.0000 0.0000 0.0000 -0.0000 0.0000 0.0000
 113.0897 32.9814 0.0147 175.4017 -30.6458 177.4661 -0.9645 -31.8208 -5.1660 31.9812 -0.0000 0.0000 -19.2071 -8.0356 -15.7620 -8.4913 0.0000 0.0000 -13.4512 3.5383 -14.9285 15.7864 0.0000 0.0000 -16.6940 7.8991 15.9416 2.7261 -0.0000 -0.0000 -4.9885 2.3574 -0.7724 0.6723 0.9334 -1.9156 19.0913 20.0484 2.7632 -5.6725 -0.1143 -10.7432 18.4224 -4.5955 23.3573 -15.9125 -15.9523 -93.8684 -0.0002 -43.0845 -0.0001 -21.1296 0.4490 -2.6900 -0.0000 0.0000 -0.0000 -0.0000 0.0000 -0.0000 18.7605 -3.0231 -15.3678 0.9833 4.1440 90.5621 -0.0000 3.0361 0.0000 -27.5072 17.8918 19.6733 -0.0000 0.0000 0.0000 -0.0000 0.0000 0.0000
